<svg width="75" height="75" viewBox="0 0 75 75" fill="none" xmlns="http://www.w3.org/2000/svg">
<rect x="36" y="18" width="33" height="36" fill="#E2A924"/>
<path d="M43.75 30.9375V25.625C45.4688 24.8958 47.2271 24.349 49.025 23.9844C50.8229 23.6198 52.7104 23.4375 54.6875 23.4375C56.0417 23.4375 57.3698 23.5417 58.6719 23.75C59.974 23.9583 61.25 24.2188 62.5 24.5312V29.5312C61.25 29.0625 59.9865 28.7104 58.7094 28.475C57.4323 28.2396 56.0917 28.1229 54.6875 28.125C52.7083 28.125 50.8073 28.3729 48.9844 28.8687C47.1615 29.3646 45.4167 30.0542 43.75 30.9375ZM43.75 48.125V42.8125C45.4688 42.0833 47.2271 41.5365 49.025 41.1719C50.8229 40.8073 52.7104 40.625 54.6875 40.625C56.0417 40.625 57.3698 40.7292 58.6719 40.9375C59.974 41.1458 61.25 41.4063 62.5 41.7188V46.7188C61.25 46.25 59.9865 45.8979 58.7094 45.6625C57.4323 45.4271 56.0917 45.3104 54.6875 45.3125C52.7083 45.3125 50.8073 45.5469 48.9844 46.0156C47.1615 46.4844 45.4167 47.1875 43.75 48.125ZM43.75 39.5312V34.2188C45.4688 33.4896 47.2271 32.9427 49.025 32.5781C50.8229 32.2135 52.7104 32.0312 54.6875 32.0312C56.0417 32.0312 57.3698 32.1354 58.6719 32.3438C59.974 32.5521 61.25 32.8125 62.5 33.125V38.125C61.25 37.6562 59.9865 37.3042 58.7094 37.0688C57.4323 36.8333 56.0917 36.7167 54.6875 36.7188C52.7083 36.7188 50.8073 36.9667 48.9844 37.4625C47.1615 37.9583 45.4167 38.6479 43.75 39.5312ZM40.625 53.2812C42.9167 52.1875 45.2208 51.3667 47.5375 50.8187C49.8542 50.2708 52.2375 49.9979 54.6875 50C56.5625 50 58.399 50.1562 60.1969 50.4688C61.9948 50.7812 63.8042 51.25 65.625 51.875V20.9375C63.9062 20.2083 62.1219 19.6615 60.2719 19.2969C58.4219 18.9323 56.5604 18.75 54.6875 18.75C52.2396 18.75 49.8177 19.0625 47.4219 19.6875C45.026 20.3125 42.7604 21.25 40.625 22.5V53.2812ZM37.5 62.5C35 60.5208 32.2917 58.9844 29.375 57.8906C26.4583 56.7969 23.4375 56.25 20.3125 56.25C17.5521 56.25 14.6615 56.7708 11.6406 57.8125C8.61979 58.8542 5.78125 60.4687 3.125 62.6562V17.3438C5.41667 15.7813 8.1125 14.5833 11.2125 13.75C14.3125 12.9167 17.3458 12.5 20.3125 12.5C23.3333 12.5 26.2896 12.8906 29.1813 13.6719C32.0729 14.4531 34.8458 15.625 37.5 17.1875C40.1562 15.625 42.9302 14.4531 45.8219 13.6719C48.7135 12.8906 51.6688 12.5 54.6875 12.5C57.6562 12.5 60.6906 12.9167 63.7906 13.75C66.8906 14.5833 69.5854 15.7813 71.875 17.3438V62.6562C69.2708 60.4687 66.4448 58.8542 63.3969 57.8125C60.349 56.7708 57.4458 56.25 54.6875 56.25C51.5625 56.25 48.5417 56.7969 45.625 57.8906C42.7083 58.9844 40 60.5208 37.5 62.5Z" fill="#373737"/>
</svg>
