<svg width="75" height="75" viewBox="0 0 75 75" fill="none" xmlns="http://www.w3.org/2000/svg">
<rect x="3" y="30" width="43" height="39" rx="19.5" fill="#E2A924"/>
<rect x="33" y="6" width="40" height="52" rx="20" fill="#E2A924"/>
<path d="M52.5833 3C47.3538 3 42.6142 3.98 38.91 5.82625C35.2088 7.6725 32.1667 10.6796 32.1667 14.6667V26.3333C32.1667 26.7096 32.2921 27.0742 32.3504 27.4271C29.4309 26.6852 26.4289 26.3177 23.4167 26.3333C18.1871 26.3333 13.4475 27.3133 9.74333 29.1596C6.04208 31.0058 3 34.0129 3 38V61.3333C3 65.3204 6.04208 68.3275 9.74625 70.1738C13.4475 72.02 18.1871 73 23.4167 73C28.6462 73 33.3858 72.02 37.09 70.1738C40.7883 68.3275 43.8333 65.3204 43.8333 61.3333V60.1492C46.6865 60.9205 49.6277 61.3186 52.5833 61.3333C57.8129 61.3333 62.5525 60.3533 66.2567 58.5071C69.955 56.6608 73 53.6538 73 49.6667V14.6667C73 10.6796 69.9579 7.6725 66.2538 5.82625C62.5554 3.98 57.8158 3 52.5833 3ZM52.5833 8.83333C57.0254 8.83333 60.9804 9.79 63.6113 11.1113C66.245 12.4325 67.1667 13.8238 67.1667 14.6667C67.1667 15.5125 66.245 16.9008 63.6113 18.2221C60.9833 19.5433 57.0254 20.5 52.5833 20.5C48.1413 20.5 44.1863 19.5433 41.5554 18.2221C38.9217 16.9008 38 15.5096 38 14.6667C38 13.8208 38.9217 12.4325 41.5554 11.1113C44.1833 9.79 48.1413 8.83333 52.5833 8.83333ZM38 22.9617C38.3063 23.1308 38.5921 23.3496 38.9129 23.5071C42.6142 25.3533 47.3538 26.3333 52.5833 26.3333C57.8129 26.3333 62.5525 25.3533 66.2567 23.5071C66.5746 23.3496 66.8604 23.1308 67.1667 22.9617V26.3333C67.1667 27.1792 66.245 28.5675 63.6113 29.8888C60.9804 31.21 57.0254 32.1667 52.5833 32.1667C48.1413 32.1667 44.1863 31.21 41.5554 29.8888C38.9217 28.5675 38 27.1763 38 26.3333V22.9617ZM23.4167 32.1667C27.8588 32.1667 31.8138 33.1233 34.4446 34.4446C37.0783 35.7658 38 37.1571 38 38C38 38.8458 37.0783 40.2342 34.4446 41.5554C31.8138 42.8767 27.8588 43.8333 23.4167 43.8333C18.9746 43.8333 15.0196 42.8767 12.3888 41.5554C9.755 40.2342 8.83333 38.8429 8.83333 38C8.83333 37.1542 9.755 35.7658 12.3888 34.4446C15.0167 33.1233 18.9746 32.1667 23.4167 32.1667ZM67.1667 34.6283V38C67.1667 38.8458 66.245 40.2342 63.6113 41.5554C60.9804 42.8767 57.0254 43.8333 52.5833 43.8333C49.6122 43.8494 46.6578 43.3876 43.8333 42.4654V38C43.8333 37.6238 43.7079 37.2592 43.6496 36.9062C46.3621 37.6121 49.3692 38 52.5833 38C57.8129 38 62.5525 37.02 66.2567 35.1738C66.5746 35.0163 66.8604 34.7975 67.1667 34.6283ZM8.83333 46.295C9.13958 46.4642 9.42542 46.6829 9.74625 46.8404C13.4475 48.6867 18.1871 49.6667 23.4167 49.6667C28.6462 49.6667 33.3858 48.6867 37.09 46.8404C37.4079 46.6829 37.6938 46.4642 38 46.295V49.6667C38 50.5125 37.0783 51.9008 34.4446 53.2221C31.8138 54.5433 27.8588 55.5 23.4167 55.5C18.9746 55.5 15.0196 54.5433 12.3888 53.2221C9.755 51.9008 8.83333 50.5096 8.83333 49.6667V46.295ZM67.1667 46.295V49.6667C67.1667 50.5125 66.245 51.9008 63.6113 53.2221C60.9804 54.5433 57.0254 55.5 52.5833 55.5C49.2671 55.5 46.2717 55.0333 43.8333 54.2225V48.5729C46.5108 49.2788 49.4275 49.6667 52.5833 49.6667C57.8129 49.6667 62.5525 48.6867 66.2567 46.8404C66.5746 46.6829 66.8604 46.4642 67.1667 46.295ZM8.83333 57.9617C9.13958 58.1308 9.42542 58.3496 9.74625 58.5071C13.4475 60.3533 18.1871 61.3333 23.4167 61.3333C28.6462 61.3333 33.3858 60.3533 37.09 58.5071C37.4079 58.3496 37.6938 58.1308 38 57.9617V61.3333C38 62.1792 37.0783 63.5675 34.4446 64.8888C31.8138 66.21 27.8588 67.1667 23.4167 67.1667C18.9746 67.1667 15.0196 66.21 12.3888 64.8888C9.755 63.5675 8.83333 62.1763 8.83333 61.3333V57.9617Z" fill="#373737"/>
</svg>
