<svg width="12" height="7" viewBox="0 0 12 7" fill="none" xmlns="http://www.w3.org/2000/svg">
<path d="M6.00007 6.72707C5.87784 6.72707 5.75959 6.70415 5.64532 6.65832C5.53043 6.61248 5.43479 6.55137 5.3584 6.47498L1.14173 2.25832C0.973676 2.09026 0.889648 1.87637 0.889648 1.61665C0.889648 1.35693 0.973676 1.14304 1.14173 0.974984C1.30979 0.806928 1.52368 0.7229 1.7834 0.7229C2.04312 0.7229 2.25701 0.806928 2.42507 0.974984L6.00007 4.54998L9.57506 0.974984C9.74312 0.806928 9.95701 0.7229 10.2167 0.7229C10.4765 0.7229 10.6903 0.806928 10.8584 0.974984C11.0265 1.14304 11.1105 1.35693 11.1105 1.61665C11.1105 1.87637 11.0265 2.09026 10.8584 2.25832L6.64173 6.47498C6.55007 6.56665 6.45076 6.63143 6.34382 6.66932C6.23687 6.70782 6.12229 6.72707 6.00007 6.72707Z" fill="#373737"/>
</svg>
